<svg width="28" height="21" viewBox="0 0 28 21" fill="none" xmlns="http://www.w3.org/2000/svg">
<path d="M23.449 1.8945C21.7211 1.10169 19.8683 0.517585 17.931 0.183044C17.8958 0.176587 17.8605 0.192723 17.8423 0.224994C17.604 0.648816 17.3401 1.20173 17.1553 1.63631C15.0716 1.32437 12.9986 1.32437 10.9577 1.63631C10.7728 1.19207 10.4993 0.648816 10.2599 0.224994C10.2417 0.193799 10.2065 0.177664 10.1712 0.183044C8.23502 0.516516 6.38218 1.10062 4.65327 1.8945C4.6383 1.90095 4.62547 1.91172 4.61695 1.92569C1.10249 7.17623 0.139731 12.2977 0.612028 17.3557C0.614165 17.3804 0.628056 17.4041 0.64729 17.4191C2.96603 19.122 5.21213 20.1558 7.41652 20.841C7.4518 20.8517 7.48918 20.8388 7.51163 20.8098C8.03308 20.0977 8.49791 19.3468 8.89645 18.5572C8.91997 18.511 8.89752 18.4561 8.84945 18.4378C8.11216 18.1582 7.41011 17.8172 6.73479 17.4299C6.68137 17.3987 6.67709 17.3223 6.72623 17.2857C6.86835 17.1793 7.0105 17.0684 7.14619 16.9566C7.17075 16.9361 7.20496 16.9318 7.23382 16.9447C11.6704 18.9703 16.4735 18.9703 20.8577 16.9447C20.8866 16.9308 20.9208 16.9351 20.9464 16.9555C21.0822 17.0674 21.2243 17.1793 21.3675 17.2857C21.4166 17.3223 21.4134 17.3987 21.36 17.4299C20.6847 17.8247 19.9826 18.1582 19.2443 18.4368C19.1962 18.4551 19.1748 18.511 19.1983 18.5572C19.6054 19.3457 20.0702 20.0966 20.5821 20.8087C20.6035 20.8388 20.6419 20.8517 20.6772 20.841C22.8923 20.1558 25.1383 19.122 27.4571 17.4191C27.4774 17.4041 27.4902 17.3815 27.4924 17.3568C28.0576 11.5092 26.5456 6.4297 23.4842 1.92676C23.4767 1.91172 23.464 1.90095 23.449 1.8945ZM9.55898 14.2759C8.22327 14.2759 7.12267 13.0496 7.12267 11.5436C7.12267 10.0376 8.20192 8.81133 9.55898 8.81133C10.9267 8.81133 12.0166 10.0484 11.9952 11.5436C11.9952 13.0496 10.916 14.2759 9.55898 14.2759ZM18.5668 14.2759C17.2311 14.2759 16.1305 13.0496 16.1305 11.5436C16.1305 10.0376 17.2097 8.81133 18.5668 8.81133C19.9345 8.81133 21.0244 10.0484 21.0031 11.5436C21.0031 13.0496 19.9345 14.2759 18.5668 14.2759Z" fill="black"/>
</svg>
