<svg width="23" height="19" viewBox="0 0 23 19" fill="none" xmlns="http://www.w3.org/2000/svg">
<path d="M22.5 0.55156C21.5424 1.22704 20.4821 1.74367 19.36 2.08156C18.7577 1.38907 17.9573 0.898252 17.067 0.675486C16.1767 0.45272 15.2395 0.508755 14.3821 0.836013C13.5247 1.16327 12.7884 1.74596 12.273 2.50528C11.7575 3.26459 11.4877 4.1639 11.5 5.08156V6.08156C9.74263 6.12713 8.00127 5.73737 6.43101 4.94701C4.86074 4.15664 3.51032 2.9902 2.5 1.55156C2.5 1.55156 -1.5 10.5516 7.5 14.5516C5.44053 15.9495 2.98716 16.6505 0.5 16.5516C9.5 21.5516 20.5 16.5516 20.5 5.05156C20.4991 4.77301 20.4723 4.49515 20.42 4.22156C21.4406 3.21505 22.1608 1.94427 22.5 0.55156Z" fill="black"/>
</svg>
