<svg width="20" height="22" viewBox="0 0 20 22" fill="none" xmlns="http://www.w3.org/2000/svg">
<path d="M7 18.0268C2 19.5268 2 15.5268 0 15.0268L7 18.0268ZM14 21.0268V17.1568C14.0375 16.68 13.9731 16.2006 13.811 15.7506C13.6489 15.3006 13.3929 14.8902 13.06 14.5468C16.2 14.1968 19.5 13.0068 19.5 7.54679C19.4997 6.15062 18.9627 4.80799 18 3.79679C18.4559 2.5753 18.4236 1.22514 17.91 0.0267931C17.91 0.0267931 16.73 -0.323207 14 1.50679C11.708 0.885615 9.29199 0.885615 7 1.50679C4.27 -0.323207 3.09 0.0267931 3.09 0.0267931C2.57638 1.22514 2.54414 2.5753 3 3.79679C2.03013 4.81549 1.49252 6.17026 1.5 7.57679C1.5 12.9968 4.8 14.1868 7.94 14.5768C7.611 14.9168 7.35726 15.3222 7.19531 15.7667C7.03335 16.2112 6.96681 16.6849 7 17.1568V21.0268" fill="black"/>
</svg>
