<svg width="7983" height="2945" viewBox="0 0 7983 2945" fill="none" xmlns="http://www.w3.org/2000/svg">
<path d="M1382.38 8.22512e-09C1440.99 -2.53711e-06 1499.6 -2.42742e-06 1558.62 0.970067C1562.05 2.99015 1565 4.69652 1568.07 4.98393C1588.43 6.88463 1608.9 7.75655 1629.16 10.3254C1672.24 15.788 1715.7 19.7754 1758.12 28.6229C1810.11 39.468 1861.99 52.2259 1912.47 68.6329C1968.23 86.758 2022.97 108.463 2077 131.318C2143.08 159.265 2205.75 194.07 2266.11 233.016C2328.38 273.193 2388.35 316.441 2442.72 366.843C2480.61 401.97 2517.4 438.344 2553.66 475.164C2595.71 517.86 2632.26 565.155 2667.4 613.691C2706.44 667.611 2742.41 723.392 2772.35 782.756C2796.08 829.81 2819.65 877.226 2838.83 926.223C2860.07 980.451 2877.99 1036.15 2894.16 1092.14C2913.47 1159.03 2926.42 1227.47 2932.75 1296.95C2936.54 1338.5 2941.54 1380.07 2942.49 1421.71C2943.68 1474.06 2941.66 1526.5 2940.24 1578.88C2939.68 1599.7 2937.89 1620.59 2935.08 1641.23C2930.8 1672.7 2926.28 1704.22 2919.81 1735.28C2909.79 1783.39 2899.05 1831.41 2886.76 1878.98C2867.94 1951.87 2840.67 2021.88 2808.87 2089.99C2770.66 2171.84 2726.06 2250.05 2673.35 2323.66C2634.38 2378.08 2592.36 2429.94 2546.89 2478.89C2521.63 2506.09 2494.57 2531.79 2466.77 2556.42C2431.62 2587.55 2395.46 2617.62 2358.72 2646.86C2301.74 2692.22 2240.27 2731.09 2176.18 2765.43C2134.44 2787.79 2091.37 2807.84 2048.16 2827.28C1983.62 2856.3 1916.3 2877.98 1848.07 2896.2C1764.65 2918.48 1679.48 2932.1 1593.47 2939.63C1558.36 2942.7 1523.04 2943.79 1487.79 2944.72C1470.21 2945.19 1452.56 2943.43 1434.96 2942.37C1394.42 2939.94 1353.79 2938.41 1313.4 2934.45C1277.21 2930.9 1241.21 2925.17 1205.29 2919.38C1142.9 2909.33 1081.64 2894.12 1021.95 2873.52C974.957 2857.3 928.577 2839.18 882.434 2820.63C812.345 2792.45 746.206 2756.28 683.212 2714.9C639.213 2686 597.046 2654.23 554.909 2622.61C504.724 2584.94 459.376 2541.87 415.623 2496.85C371.611 2451.57 330.787 2403.81 292.909 2353.38C247.988 2293.57 206.8 2231.27 173.115 2164.52C147.359 2113.49 122.48 2061.73 101.644 2008.56C80.9938 1955.87 64.2493 1901.46 48.7721 1846.96C29.1709 1777.93 16.3352 1707.36 10.1999 1635.74C6.60242 1593.75 2.15925 1551.77 0.40246 1509.69C-0.860397 1479.44 1.11238 1449 2.68469 1418.7C4.61302 1381.54 6.8508 1344.36 10.4063 1307.33C13.5704 1274.37 16.7425 1241.2 23.4475 1208.85C33.4935 1160.39 46.3236 1112.49 58.5339 1064.5C75.7921 996.657 101.476 931.837 129.773 867.955C157.676 804.963 190.48 744.519 227.196 686.392C250.675 649.221 276.928 613.671 303.715 578.758C330.491 543.86 357.388 508.623 387.993 477.195C433.205 430.766 480.602 386.277 529.259 343.451C562.643 314.068 599.015 287.879 635.348 262.089C704.312 213.137 777.273 170.793 854.811 136.791C892.899 120.089 930.904 102.662 970.274 89.5426C1029.51 69.8014 1089.46 51.7329 1149.98 36.4341C1193 25.5619 1237.31 19.3371 1281.33 13.0969C1312.67 8.65354 1344.51 7.72644 1376.1 4.89216C1378.32 4.69282 1380.29 1.69599 1382.38 8.22512e-09ZM1204.32 1505.58C1188.23 1487.2 1172.13 1468.83 1156.18 1450.61C1129.62 1474.11 1103.51 1496.98 1077.66 1520.12C1043.02 1551.13 1008.59 1582.36 974.057 1613.48C948.237 1636.75 922.403 1660.01 896.575 1683.27C862.348 1714.1 828.133 1744.94 793.892 1775.75C760.28 1806 726.612 1836.18 693.022 1866.45C657.859 1898.13 622.683 1929.81 587.655 1961.64C557.23 1989.3 527.093 2017.27 496.639 2044.89C486.166 2054.38 474.852 2062.96 464.399 2072.47C447.387 2087.96 430.766 2103.88 414.115 2119.49C441.793 2150.18 468.419 2179.7 494.66 2208.79C501.333 2203.36 508.023 2198.34 514.23 2192.78C548.236 2162.35 582.142 2131.79 616.046 2101.24C650.895 2069.84 685.687 2038.37 720.536 2006.97C754.44 1976.42 788.405 1945.93 822.309 1915.38C857.158 1883.98 891.95 1852.51 926.799 1821.11C960.704 1790.55 994.747 1760.15 1028.55 1729.49C1059 1701.86 1089.2 1673.97 1119.52 1646.2C1129.11 1637.42 1138.63 1628.57 1148.34 1619.94C1177.87 1593.68 1207.47 1567.5 1236.53 1541.76C1231.37 1534.94 1226.63 1528.67 1221.94 1520.4C1219.99 1516.03 1218.66 1511.18 1215.87 1507.43C1213.61 1504.4 1209.86 1498.57 1204.32 1505.58ZM2235.23 2151.02C2233.64 2138.96 2227.16 2132.51 2212.97 2132.47C2209.7 2130.01 2206.21 2127.79 2203.19 2125.05C2175.22 2099.75 2147.35 2074.34 2119.42 2048.99C2092.12 2024.2 2064.69 1999.56 2037.49 1974.67C1995.38 1936.15 1953.44 1897.44 1911.4 1858.86C1891.62 1840.71 1871.88 1822.52 1851.92 1804.58C1811.78 1768.5 1771.44 1732.65 1731.29 1696.58C1704.49 1672.51 1677.78 1648.34 1651.18 1624.05C1609.98 1586.42 1568.97 1548.58 1527.76 1510.96C1509.25 1494.07 1490.47 1477.48 1471.82 1460.76C1461.7 1469.56 1451.81 1477.88 1442.24 1486.54C1404.65 1520.59 1367.19 1554.77 1329.62 1588.84C1303.57 1612.47 1277.32 1635.89 1251.33 1659.6C1210.41 1696.91 1169.65 1734.39 1128.82 1771.79C1108.4 1790.5 1088.14 1809.37 1067.54 1827.87C1028.03 1863.38 988.3 1898.64 948.726 1934.08C923.152 1956.98 897.626 1979.94 872.2 2003C834.012 2037.65 795.871 2072.34 757.826 2107.14C734.896 2128.12 712.202 2149.35 689.369 2170.44C679.509 2179.54 669.655 2188.65 659.642 2197.58C628.191 2225.65 596.667 2253.62 564.723 2282.03C592.499 2312.55 619.862 2342.61 646.66 2372.05C674.643 2347.14 702.026 2323.08 729.052 2298.63C768.227 2263.18 807.181 2227.49 846.155 2191.82C868.456 2171.41 890.436 2150.65 912.866 2130.39C953.854 2093.36 995.076 2056.58 1036.19 2019.69C1061.11 1997.33 1086.1 1975.05 1110.89 1952.54C1149.69 1917.31 1188.58 1882.17 1226.86 1846.38C1233.97 1839.74 1238.55 1840.18 1246 1844.92C1261.86 1855 1277.91 1864.99 1294.69 1873.38C1335.72 1893.87 1379.35 1907.6 1424.93 1910.98C1473.27 1914.56 1521.72 1911.97 1568.72 1897.28C1616.04 1882.5 1659.59 1860.56 1698.02 1830.05C1708.32 1839.03 1718.25 1847.4 1727.86 1856.12C1765.74 1890.47 1803.49 1924.96 1841.35 1959.34C1868.02 1983.56 1894.82 2007.63 1921.49 2031.85C1959.34 2066.23 1997.1 2100.72 2034.96 2135.1C2061.63 2159.32 2088.42 2183.4 2115.1 2207.6C2143.36 2233.22 2171.57 2258.89 2199.76 2284.58C2229.2 2311.42 2258.74 2338.14 2287.88 2365.31C2293.61 2370.66 2297.24 2370.82 2302.34 2365.07C2312.36 2353.76 2322.93 2342.94 2333.03 2331.7C2347.96 2315.1 2362.68 2298.32 2376.95 2282.22C2329.31 2238.76 2282.27 2195.84 2235.23 2151.02ZM1671.98 1304.45C1668.21 1299.63 1664.98 1294.17 1660.43 1290.26C1658.01 1288.19 1653.28 1288.82 1647.97 1287.58C1642.3 1282.72 1636.42 1278.07 1630.98 1272.95C1599.99 1243.82 1569.14 1214.55 1538.18 1185.38C1526.26 1174.14 1514.15 1163.09 1502.22 1151.86C1495.26 1145.33 1489.17 1142.88 1481.37 1151.64C1473.89 1160.03 1464.67 1166.84 1456.36 1174.51C1422.71 1205.54 1389.21 1236.73 1355.45 1267.65C1342.21 1279.77 1328.65 1291.55 1314.74 1302.87C1312.66 1304.57 1306.54 1304.34 1304.46 1302.53C1278.35 1279.6 1252.64 1256.2 1226.8 1232.95C1201.91 1210.55 1176.89 1188.29 1152.1 1165.78C1112.98 1130.26 1074.01 1094.57 1034.96 1058.97C1016.06 1041.74 997.248 1024.41 978.197 1007.35C939.245 972.476 900.064 937.854 861.165 902.918C839.932 883.849 819.267 864.148 798.021 845.095C760.043 811.036 721.786 777.288 683.709 743.338C659.03 721.334 634.348 699.328 609.872 677.098C571.697 642.426 533.696 607.564 495.322 572.509C468.236 602.559 441.435 632.294 413.766 662.99C433.54 680.668 452.897 697.948 472.226 715.259C496.858 737.318 521.52 759.344 546.076 781.487C590.252 821.323 634.344 861.253 678.502 901.11C703.991 924.116 729.551 947.043 755.058 970.03C798.302 1009 841.521 1048 884.765 1086.97C910.272 1109.96 935.832 1132.89 961.321 1155.89C996.774 1187.89 1032.15 1219.97 1067.62 1251.95C1092.49 1274.38 1117.58 1296.57 1142.36 1319.1C1182.09 1355.21 1221.56 1391.6 1261.32 1427.69C1277.67 1442.52 1294.46 1456.87 1310.96 1471.36C1321.06 1462.55 1330.98 1454.24 1340.52 1445.51C1382.32 1407.26 1423.99 1368.87 1465.77 1330.61C1472.92 1324.06 1480.24 1317.67 1487.86 1311.68C1489.15 1310.67 1492.86 1311.37 1494.58 1312.55C1499.36 1315.8 1503.88 1319.5 1508.14 1323.42C1531.64 1345.04 1555.12 1366.69 1578.43 1388.51C1609.48 1417.57 1640.37 1446.81 1671.3 1475.94C1696.2 1452.87 1721.28 1429.88 1746.09 1406.6C1777.73 1376.92 1809.17 1347.03 1840.67 1317.2C1873.09 1286.5 1905.47 1255.76 1937.9 1225.06C1969.1 1195.53 2000.37 1166.08 2031.55 1136.53C2064.89 1104.95 2098.14 1073.27 2131.49 1041.7C2161.77 1013.04 2192.16 984.521 2222.44 955.865C2255.79 924.296 2289.03 892.605 2322.38 861.035C2352.65 832.379 2383.13 803.941 2413.3 775.179C2452.37 737.932 2491.23 700.458 2530.3 662.961C2502.54 633.489 2474.69 603.926 2447.17 574.702C2428.53 591.975 2410.8 608.144 2393.36 624.623C2359.06 657.037 2324.96 689.675 2290.69 722.123C2261.34 749.907 2231.81 777.489 2202.46 805.279C2167.89 838.024 2133.49 870.955 2098.91 903.695C2069.87 931.189 2040.62 958.46 2011.58 985.947C1977.3 1018.39 1943.18 1051 1908.92 1083.46C1878.66 1112.13 1848.2 1140.58 1818 1169.32C1778.89 1206.53 1740.02 1243.99 1700.9 1281.19C1691.83 1289.81 1682.13 1297.78 1671.98 1304.45ZM1906.95 1536.28C1872.42 1504.75 1837.89 1473.23 1802.33 1440.77C1774.33 1471.9 1747.75 1501.45 1720.62 1531.62C1745.44 1553.56 1770.25 1575.38 1794.95 1597.34C1819.01 1618.73 1843.01 1640.21 1866.95 1661.75C1910.2 1700.66 1953.36 1739.69 1996.63 1778.58C2019.64 1799.26 2042.88 1819.67 2065.91 1840.32C2108.27 1878.32 2150.53 1916.45 2192.88 1954.47C2216.84 1975.98 2240.93 1997.36 2264.9 2018.86C2298.54 2049.04 2332.13 2079.27 2365.74 2109.48C2390.95 2132.14 2416.28 2154.66 2441.24 2177.59C2446.68 2182.59 2450.2 2182.09 2454.81 2177C2466.09 2164.54 2477.84 2152.52 2489.07 2140.02C2502.4 2125.18 2515.38 2110.03 2529.17 2094.26C2504.89 2071.87 2481.39 2049.76 2457.42 2028.18C2418.58 1993.21 2379.39 1958.64 2340.45 1923.79C2321.72 1907.03 2303.29 1889.93 2284.58 1873.14C2244.43 1837.11 2204.17 1801.2 2163.99 1765.18C2146.22 1749.25 2128.67 1733.08 2110.84 1717.22C2073.99 1684.47 2036.92 1651.98 2000.15 1619.14C1979.51 1600.7 1959.4 1581.68 1938.84 1563.15C1928.97 1554.26 1918.61 1545.9 1906.95 1536.28Z" fill="#FEFEFE"/>
<path d="M3344.15 1709L3154.09 1035.55H3285.29L3406.63 1530.44H3412.88L3542.44 1035.55H3661.81L3791.7 1530.77H3797.62L3918.96 1035.55H4050.16L3860.1 1709H3739.74L3604.92 1236.46H3599.66L3464.51 1709H3344.15ZM4301.56 1718.87C4250.92 1718.87 4207.18 1708.34 4170.35 1687.3C4133.74 1666.03 4105.57 1636 4085.84 1597.2C4066.11 1558.17 4056.25 1512.25 4056.25 1459.41C4056.25 1407.46 4066.11 1361.86 4085.84 1322.62C4105.79 1283.16 4133.63 1252.47 4169.36 1230.54C4205.1 1208.4 4247.08 1197.33 4295.31 1197.33C4326.44 1197.33 4355.81 1202.37 4383.44 1212.46C4411.28 1222.32 4435.83 1237.67 4457.1 1258.5C4478.58 1279.32 4495.46 1305.85 4507.74 1338.07C4520.01 1370.08 4526.15 1408.23 4526.15 1452.51V1489.01H4112.15V1408.77H4412.05C4411.83 1385.97 4406.89 1365.7 4397.25 1347.94C4387.6 1329.96 4374.12 1315.82 4356.8 1305.52C4339.7 1295.22 4319.75 1290.06 4296.95 1290.06C4272.62 1290.06 4251.24 1295.98 4232.83 1307.82C4214.42 1319.44 4200.06 1334.79 4189.75 1353.86C4179.67 1372.71 4174.52 1393.43 4174.3 1416.01V1486.05C4174.3 1515.43 4179.67 1540.64 4190.41 1561.68C4201.15 1582.51 4216.17 1598.51 4235.46 1609.69C4254.75 1620.65 4277.33 1626.13 4303.2 1626.13C4320.52 1626.13 4336.19 1623.72 4350.22 1618.9C4364.25 1613.86 4376.42 1606.51 4386.72 1596.87C4397.03 1587.22 4404.81 1575.27 4410.07 1561.02L4521.22 1573.52C4514.2 1602.9 4500.83 1628.54 4481.1 1650.47C4461.59 1672.17 4436.6 1689.05 4406.13 1701.11C4375.65 1712.95 4340.8 1718.87 4301.56 1718.87ZM4632.12 1709V1035.55H4751.16V1287.43H4756.09C4762.23 1275.16 4770.89 1262.11 4782.07 1248.3C4793.25 1234.27 4808.37 1222.32 4827.45 1212.46C4846.52 1202.37 4870.85 1197.33 4900.45 1197.33C4939.47 1197.33 4974.65 1207.31 5006 1227.26C5037.57 1246.99 5062.56 1276.25 5080.98 1315.06C5099.61 1353.64 5108.93 1400.99 5108.93 1457.11C5108.93 1512.58 5099.83 1559.71 5081.64 1598.51C5063.44 1637.31 5038.67 1666.91 5007.32 1687.3C4975.97 1707.68 4940.46 1717.88 4900.78 1717.88C4871.84 1717.88 4847.83 1713.06 4828.76 1703.41C4809.69 1693.76 4794.34 1682.15 4782.72 1668.55C4771.32 1654.74 4762.45 1641.7 4756.09 1629.42H4749.18V1709H4632.12ZM4748.85 1456.45C4748.85 1489.12 4753.46 1517.73 4762.67 1542.28C4772.09 1566.83 4785.57 1586.02 4803.11 1599.83C4820.87 1613.42 4842.35 1620.21 4867.56 1620.21C4893.87 1620.21 4915.9 1613.2 4933.66 1599.17C4951.42 1584.92 4964.79 1565.52 4973.78 1540.97C4982.99 1516.19 4987.59 1488.02 4987.59 1456.45C4987.59 1425.11 4983.09 1397.26 4974.11 1372.93C4965.12 1348.6 4951.75 1329.52 4933.99 1315.71C4916.23 1301.9 4894.09 1295 4867.56 1295C4842.13 1295 4820.54 1301.68 4802.78 1315.06C4785.03 1328.43 4771.54 1347.17 4762.34 1371.29C4753.35 1395.4 4748.85 1423.79 4748.85 1456.45ZM5291.1 1035.55L5439.41 1282.17H5444.67L5593.63 1035.55H5732.73L5525.23 1372.27L5736.02 1709H5594.62L5444.67 1464.02H5439.41L5289.46 1709H5148.72L5361.47 1372.27L5151.35 1035.55H5291.1ZM6286.41 1709H6058.19V1035.55H6291.01C6357.87 1035.55 6415.31 1049.03 6463.32 1075.99C6511.55 1102.74 6548.6 1141.21 6574.47 1191.41C6600.33 1241.62 6613.27 1301.68 6613.27 1371.62C6613.27 1441.77 6600.22 1502.05 6574.14 1552.47C6548.27 1602.9 6510.89 1641.59 6462 1668.55C6413.34 1695.52 6354.8 1709 6286.41 1709ZM6180.19 1603.44H6280.49C6327.4 1603.44 6366.53 1594.89 6397.88 1577.79C6429.23 1560.48 6452.8 1534.72 6468.58 1500.52C6484.36 1466.1 6492.26 1423.13 6492.26 1371.62C6492.26 1320.1 6484.36 1277.35 6468.58 1243.37C6452.8 1209.17 6429.45 1183.63 6398.54 1166.75C6367.85 1149.65 6329.7 1141.1 6284.1 1141.1H6180.19V1603.44ZM6779.49 1709H6649.28L6886.37 1035.55H7036.97L7274.39 1709H7144.17L6964.3 1173.66H6959.04L6779.49 1709ZM6783.77 1444.95H7138.91V1542.94H6783.77V1444.95ZM7933.21 1372.27C7933.21 1444.84 7919.62 1506.99 7892.44 1558.72C7865.47 1610.24 7828.64 1649.7 7781.95 1677.1C7735.47 1704.51 7682.75 1718.21 7623.78 1718.21C7564.81 1718.21 7511.97 1704.51 7465.28 1677.1C7418.8 1649.48 7381.98 1609.91 7354.79 1558.39C7327.83 1506.66 7314.34 1444.62 7314.34 1372.27C7314.34 1299.71 7327.83 1237.67 7354.79 1186.15C7381.98 1134.42 7418.8 1094.85 7465.28 1067.44C7511.97 1040.04 7564.81 1026.34 7623.78 1026.34C7682.75 1026.34 7735.47 1040.04 7781.95 1067.44C7828.64 1094.85 7865.47 1134.42 7892.44 1186.15C7919.62 1237.67 7933.21 1299.71 7933.21 1372.27ZM7810.56 1372.27C7810.56 1321.19 7802.56 1278.12 7786.55 1243.04C7770.77 1207.75 7748.85 1181.11 7720.79 1163.13C7692.72 1144.94 7660.39 1135.84 7623.78 1135.84C7587.17 1135.84 7554.83 1144.94 7526.77 1163.13C7498.71 1181.11 7476.68 1207.75 7460.68 1243.04C7444.89 1278.12 7437 1321.19 7437 1372.27C7437 1423.35 7444.89 1466.54 7460.68 1501.83C7476.68 1536.91 7498.71 1563.55 7526.77 1581.74C7554.83 1599.72 7587.17 1608.71 7623.78 1608.71C7660.39 1608.71 7692.72 1599.72 7720.79 1581.74C7748.85 1563.55 7770.77 1536.91 7786.55 1501.83C7802.56 1466.54 7810.56 1423.35 7810.56 1372.27Z" fill="white"/>
</svg>
